HIERARCHY
ROOT root
{
	OFFSET 0.0000 0.0000 0.0000
	CHANNELS 6 Xposition Yposition Zposition Zrotation Xrotation Yrotation
	JOINT rfemur
	{
		OFFSET -8.5590 -9.8555 2.1513
		CHANNELS 3 Zrotation Xrotation Yrotation
		JOINT rtibia
		{
			OFFSET -7.2751 -41.2593 0.0000
			CHANNELS 3 Zrotation Xrotation Yrotation
			JOINT rfoot
			{
				OFFSET -6.5686 -37.2525 -0.0000
				CHANNELS 3 Zrotation Xrotation Yrotation
				JOINT rtoes
				{
					OFFSET 3.2326 -4.1860 10.4122
					CHANNELS 3 Zrotation Xrotation Yrotation
					End Site
					{
						OFFSET 0.0000 0.0000 0.0000
					}
				}
			}
		}
	}
	JOINT lfemur
	{
		OFFSET 8.5590 -9.8555 2.1513
		CHANNELS 3 Zrotation Xrotation Yrotation
		JOINT ltibia
		{
			OFFSET 7.2751 -41.2593 0.0000
			CHANNELS 3 Zrotation Xrotation Yrotation
			JOINT lfoot
			{
				OFFSET 6.5686 -37.2525 -0.0000
				CHANNELS 3 Zrotation Xrotation Yrotation
				JOINT ltoes
				{
					OFFSET 3.2326 -4.1860 10.4122
					CHANNELS 3 Zrotation Xrotation Yrotation
					End Site
					{
						OFFSET -0.0000 -0.0000 0.0000
					}
				}
			}
		}
	}
	JOINT lowerback
	{
		OFFSET 0.0000 0.0000 0.0000
		CHANNELS 3 Zrotation Xrotation Yrotation
		JOINT upperback
		{
			OFFSET 0.0000 11.0962 -0.4289
			CHANNELS 3 Zrotation Xrotation Yrotation
			JOINT thorax
			{
				OFFSET 0.0000 11.0405 -0.3169
				CHANNELS 3 Zrotation Xrotation Yrotation
				JOINT neck
				{
					OFFSET 0.0000 11.1642 0.0841
					CHANNELS 3 Zrotation Xrotation Yrotation
					JOINT head
					{
						OFFSET 0.0000 15.5530 -0.6089
						CHANNELS 3 Zrotation Xrotation Yrotation
						End Site
						{
							OFFSET -0.0000 0.0000 0.0000
						}
					}
				}
			}
		}
	}
}
MOTION
Frames: 33
Frame Time: 0.008333
0.0000 96.9821 -24.3817 0.0000 0.0000 0.0000 0.0000 -14.1120 0.0000 0.0000 0.0000 0.0000 0.0000 0.0000 0.0000 0.0000 0.0000 0.0000 0.0000 14.1177 0.0000 0.0000 0.0000 0.0000 0.0000 0.0000 0.0000 0.0000 0.0000 0.0000 0.0000 -16.6209 0.0000 0.0000 -1.5100 0.0000 0.0000 14.9700 0.0000 0.0000 0.0000 0.0000 0.0000 0.0000 0.0000 
0.0000 97.1737 -23.6066 0.0000 0.0000 0.0000 0.0000 -13.6545 0.0000 0.0000 0.0000 0.0000 0.0000 0.0000 0.0000 0.0000 0.0000 0.0000 0.0000 13.7325 0.0000 0.0000 0.0921 0.0000 0.0000 0.0000 0.0000 0.0000 0.0000 0.0000 0.0000 -16.6317 0.0000 0.0000 -1.5100 0.0000 0.0000 14.9700 0.0000 0.0000 0.0000 0.0000 0.0000 0.0000 0.0000 
0.0000 97.3542 -22.8505 0.0000 0.0000 0.0000 0.0000 -13.2091 0.0000 0.0000 0.0000 0.0000 0.0000 0.0000 0.0000 0.0000 0.0000 0.0000 0.0000 13.2724 0.0000 0.0000 0.3647 0.0000 0.0000 0.0000 0.0000 0.0000 0.0000 0.0000 0.0000 -16.6295 0.0000 0.0000 -1.5100 0.0000 0.0000 14.9700 0.0000 0.0000 0.0000 0.0000 0.0000 0.0000 0.0000 
0.0000 97.5244 -22.1129 0.0000 0.0000 0.0000 0.0000 -12.7754 0.0000 0.0000 0.0000 0.0000 0.0000 0.0000 0.0000 0.0000 0.0000 0.0000 0.0000 12.7389 0.0000 0.0000 0.8127 0.0000 0.0000 0.0000 0.0000 0.0000 0.0000 0.0000 0.0000 -16.6145 0.0000 0.0000 -1.5100 0.0000 0.0000 14.9700 0.0000 0.0000 0.0000 0.0000 0.0000 0.0000 0.0000 
0.0000 97.6846 -21.3940 0.0000 0.0000 0.0000 0.0000 -12.3534 0.0000 0.0000 0.0000 0.0000 0.0000 0.0000 0.0000 0.0000 0.0000 0.0000 0.0000 12.1321 0.0000 0.0000 1.4344 0.0000 0.0000 0.0000 0.0000 0.0000 0.0000 0.0000 0.0000 -16.5868 0.0000 0.0000 -1.5100 0.0000 0.0000 14.9700 0.0000 0.0000 0.0000 0.0000 0.0000 0.0000 0.0000 
0.0000 97.8354 -20.6935 0.0000 0.0000 0.0000 0.0000 -11.9428 0.0000 0.0000 0.0000 0.0000 0.0000 0.0000 0.0000 0.0000 0.0000 0.0000 0.0000 11.4532 0.0000 0.0000 2.2239 0.0000 0.0000 0.0000 0.0000 0.0000 0.0000 0.0000 0.0000 -16.5466 0.0000 0.0000 -1.5100 0.0000 0.0000 14.9700 0.0000 0.0000 0.0000 0.0000 0.0000 0.0000 0.0000 
0.0000 97.9774 -20.0107 0.0000 0.0000 0.0000 0.0000 -11.5432 0.0000 0.0000 0.0000 0.0000 0.0000 0.0000 0.0000 0.0000 0.0000 0.0000 0.0000 10.7049 0.0000 0.0000 3.1716 0.0000 0.0000 0.0000 0.0000 0.0000 0.0000 0.0000 0.0000 -16.4943 0.0000 0.0000 -1.5100 0.0000 0.0000 14.9700 0.0000 0.0000 0.0000 0.0000 0.0000 0.0000 0.0000 
0.0000 98.1109 -19.3454 0.0000 0.0000 0.0000 0.0000 -11.1545 0.0000 0.0000 0.0000 0.0000 0.0000 0.0000 0.0000 0.0000 0.0000 0.0000 0.0000 9.8884 0.0000 0.0000 4.2714 0.0000 0.0000 0.0000 0.0000 0.0000 0.0000 0.0000 0.0000 -16.4301 0.0000 0.0000 -1.5100 0.0000 0.0000 14.9700 0.0000 0.0000 0.0000 0.0000 0.0000 0.0000 0.0000 
0.0000 98.2365 -18.6973 0.0000 0.0000 0.0000 0.0000 -10.7762 0.0000 0.0000 0.0000 0.0000 0.0000 0.0000 0.0000 0.0000 0.0000 0.0000 0.0000 9.0057 0.0000 0.0000 5.5135 0.0000 0.0000 0.0000 0.0000 0.0000 0.0000 0.0000 0.0000 -16.3544 0.0000 0.0000 -1.5100 0.0000 0.0000 14.9700 0.0000 0.0000 0.0000 0.0000 0.0000 0.0000 0.0000 
0.0000 98.3547 -18.0653 0.0000 0.0000 0.0000 0.0000 -10.4078 0.0000 0.0000 0.0000 0.0000 0.0000 0.0000 0.0000 0.0000 0.0000 0.0000 0.0000 8.0605 0.0000 0.0000 6.8847 0.0000 0.0000 0.0000 0.0000 0.0000 0.0000 0.0000 0.0000 -16.2679 0.0000 0.0000 -1.5100 0.0000 0.0000 14.9700 0.0000 0.0000 0.0000 0.0000 0.0000 0.0000 0.0000 
0.0000 98.4659 -17.4491 0.0000 0.0000 0.0000 0.0000 -10.0490 0.0000 0.0000 0.0000 0.0000 0.0000 0.0000 0.0000 0.0000 0.0000 0.0000 0.0000 7.0549 0.0000 0.0000 8.3747 0.0000 0.0000 0.0000 0.0000 0.0000 0.0000 0.0000 0.0000 -16.1709 0.0000 0.0000 -1.5100 0.0000 0.0000 14.9700 0.0000 0.0000 0.0000 0.0000 0.0000 0.0000 0.0000 
0.0000 98.5705 -16.8478 0.0000 0.0000 0.0000 0.0000 -9.6993 0.0000 0.0000 0.0000 0.0000 0.0000 0.0000 0.0000 0.0000 0.0000 0.0000 0.0000 5.9923 0.0000 0.0000 9.9699 0.0000 0.0000 0.0000 0.0000 0.0000 0.0000 0.0000 0.0000 -16.0639 0.0000 0.0000 -1.5100 0.0000 0.0000 14.9700 0.0000 0.0000 0.0000 0.0000 0.0000 0.0000 0.0000 
0.0000 98.6692 -16.2601 0.0000 0.0000 0.0000 0.0000 -9.3579 0.0000 0.0000 0.0000 0.0000 0.0000 0.0000 0.0000 0.0000 0.0000 0.0000 0.0000 4.8773 0.0000 0.0000 11.6539 0.0000 0.0000 0.0000 0.0000 0.0000 0.0000 0.0000 0.0000 -15.9479 0.0000 0.0000 -1.5100 0.0000 0.0000 14.9700 0.0000 0.0000 0.0000 0.0000 0.0000 0.0000 0.0000 
0.0000 98.7622 -15.6853 0.0000 0.0000 0.0000 0.0000 -9.0243 0.0000 0.0000 0.0000 0.0000 0.0000 0.0000 0.0000 0.0000 0.0000 0.0000 0.0000 3.7133 0.0000 0.0000 13.4123 0.0000 0.0000 0.0000 0.0000 0.0000 0.0000 0.0000 0.0000 -15.8234 0.0000 0.0000 -1.5100 0.0000 0.0000 14.9700 0.0000 0.0000 0.0000 0.0000 0.0000 0.0000 0.0000 
0.0000 98.8500 -15.1218 0.0000 0.0000 0.0000 0.0000 -8.6975 0.0000 0.0000 0.0000 0.0000 0.0000 0.0000 0.0000 0.0000 0.0000 0.0000 0.0000 2.5051 0.0000 0.0000 15.2281 0.0000 0.0000 0.0000 0.0000 0.0000 0.0000 0.0000 0.0000 -15.6911 0.0000 0.0000 -1.5100 0.0000 0.0000 14.9700 0.0000 0.0000 0.0000 0.0000 0.0000 0.0000 0.0000 
0.0000 98.9331 -14.5683 0.0000 0.0000 0.0000 0.0000 -8.3768 0.0000 0.0000 0.0000 0.0000 0.0000 0.0000 0.0000 0.0000 0.0000 0.0000 0.0000 1.2582 0.0000 0.0000 17.0826 0.0000 0.0000 0.0000 0.0000 0.0000 0.0000 0.0000 0.0000 -15.5522 0.0000 0.0000 -1.5100 0.0000 0.0000 14.9700 0.0000 0.0000 0.0000 0.0000 0.0000 0.0000 0.0000 
0.0000 99.0119 -14.0231 0.0000 0.0000 0.0000 0.0000 -8.0612 0.0000 0.0000 0.0000 0.0000 0.0000 0.0000 0.0000 0.0000 0.0000 0.0000 0.0000 -0.0224 0.0000 0.0000 18.9580 0.0000 0.0000 0.0000 0.0000 0.0000 0.0000 0.0000 0.0000 -15.4075 0.0000 0.0000 -1.5100 0.0000 0.0000 14.9700 0.0000 0.0000 0.0000 0.0000 0.0000 0.0000 0.0000 
0.0000 99.0866 -13.4847 0.0000 0.0000 0.0000 0.0000 -7.7497 0.0000 0.0000 0.0000 0.0000 0.0000 0.0000 0.0000 0.0000 0.0000 0.0000 0.0000 -1.3312 0.0000 0.0000 20.8348 0.0000 0.0000 0.0000 0.0000 0.0000 0.0000 0.0000 0.0000 -15.2579 0.0000 0.0000 -1.5100 0.0000 0.0000 14.9700 0.0000 0.0000 0.0000 0.0000 0.0000 0.0000 0.0000 
0.0000 99.1578 -12.9509 0.0000 0.0000 0.0000 0.0000 -7.4412 0.0000 0.0000 0.0000 0.0000 0.0000 0.0000 0.0000 0.0000 0.0000 0.0000 0.0000 -2.6615 0.0000 0.0000 22.6936 0.0000 0.0000 0.0000 0.0000 0.0000 0.0000 0.0000 0.0000 -15.1046 0.0000 0.0000 -1.5100 0.0000 0.0000 14.9700 0.0000 0.0000 0.0000 0.0000 0.0000 0.0000 0.0000 
0.0000 99.2257 -12.4201 0.0000 0.0000 0.0000 0.0000 -7.1346 0.0000 0.0000 0.0000 0.0000 0.0000 0.0000 0.0000 0.0000 0.0000 0.0000 0.0000 -4.0075 0.0000 0.0000 24.5143 0.0000 0.0000 0.0000 0.0000 0.0000 0.0000 0.0000 0.0000 -14.9487 0.0000 0.0000 -1.5100 0.0000 0.0000 14.9700 0.0000 0.0000 0.0000 0.0000 0.0000 0.0000 0.0000 
0.0000 99.2906 -11.8901 0.0000 0.0000 0.0000 0.0000 -6.8287 0.0000 0.0000 0.0000 0.0000 0.0000 0.0000 0.0000 0.0000 0.0000 0.0000 0.0000 -5.3628 0.0000 0.0000 26.2767 0.0000 0.0000 0.0000 0.0000 0.0000 0.0000 0.0000 0.0000 -14.7913 0.0000 0.0000 -1.5100 0.0000 0.0000 14.9700 0.0000 0.0000 0.0000 0.0000 0.0000 0.0000 0.0000 
0.0000 99.3528 -11.3589 0.0000 0.0000 0.0000 0.0000 -6.5223 0.0000 0.0000 0.0000 0.0000 0.0000 0.0000 0.0000 0.0000 0.0000 0.0000 0.0000 -6.7207 0.0000 0.0000 27.9624 0.0000 0.0000 0.0000 0.0000 0.0000 0.0000 0.0000 0.0000 -14.6336 0.0000 0.0000 -1.5100 0.0000 0.0000 14.9700 0.0000 0.0000 0.0000 0.0000 0.0000 0.0000 0.0000 
0.0000 99.4124 -10.8244 0.0000 0.0000 0.0000 0.0000 -6.2141 0.0000 0.0000 0.0000 0.0000 0.0000 0.0000 0.0000 0.0000 0.0000 0.0000 0.0000 -8.0748 0.0000 0.0000 29.5511 0.0000 0.0000 0.0000 0.0000 0.0000 0.0000 0.0000 0.0000 -14.4767 0.0000 0.0000 -1.5100 0.0000 0.0000 14.9700 0.0000 0.0000 0.0000 0.0000 0.0000 0.0000 0.0000 
0.0000 99.4697 -10.2845 0.0000 0.0000 0.0000 0.0000 -5.9030 0.0000 0.0000 0.0000 0.0000 0.0000 0.0000 0.0000 0.0000 0.0000 0.0000 0.0000 -9.4186 0.0000 0.0000 31.0238 0.0000 0.0000 0.0000 0.0000 0.0000 0.0000 0.0000 0.0000 -14.3218 0.0000 0.0000 -1.5100 0.0000 0.0000 14.9700 0.0000 0.0000 0.0000 0.0000 0.0000 0.0000 0.0000 
0.0000 99.5248 -9.7372 0.0000 0.0000 0.0000 0.0000 -5.5878 0.0000 0.0000 0.0000 0.0000 0.0000 0.0000 0.0000 0.0000 0.0000 0.0000 0.0000 -10.7462 0.0000 0.0000 32.3650 0.0000 0.0000 0.0000 0.0000 0.0000 0.0000 0.0000 0.0000 -14.1699 0.0000 0.0000 -1.5100 0.0000 0.0000 14.9700 0.0000 0.0000 0.0000 0.0000 0.0000 0.0000 0.0000 
0.0000 99.5777 -9.1805 0.0000 0.0000 0.0000 0.0000 -5.2675 0.0000 0.0000 0.0000 0.0000 0.0000 0.0000 0.0000 0.0000 0.0000 0.0000 0.0000 -12.0512 0.0000 0.0000 33.5558 0.0000 0.0000 0.0000 0.0000 0.0000 0.0000 0.0000 0.0000 -14.0222 0.0000 0.0000 -1.5100 0.0000 0.0000 14.9700 0.0000 0.0000 0.0000 0.0000 0.0000 0.0000 0.0000 
0.0000 99.6284 -8.6127 0.0000 0.0000 0.0000 0.0000 -4.9408 0.0000 0.0000 0.0000 0.0000 0.0000 0.0000 0.0000 0.0000 0.0000 0.0000 0.0000 -13.3280 0.0000 0.0000 34.5803 0.0000 0.0000 0.0000 0.0000 0.0000 0.0000 0.0000 0.0000 -13.8797 0.0000 0.0000 -1.5100 0.0000 0.0000 14.9700 0.0000 0.0000 0.0000 0.0000 0.0000 0.0000 0.0000 
0.0000 99.6769 -8.0321 0.0000 0.0000 0.0000 0.0000 -4.6070 0.0000 0.0000 0.0000 0.0000 0.0000 0.0000 0.0000 0.0000 0.0000 0.0000 0.0000 -14.5718 0.0000 0.0000 35.4269 0.0000 0.0000 0.0000 0.0000 0.0000 0.0000 0.0000 0.0000 -13.7432 0.0000 0.0000 -1.5100 0.0000 0.0000 14.9700 0.0000 0.0000 0.0000 0.0000 0.0000 0.0000 0.0000 
0.0000 99.7231 -7.4369 0.0000 0.0000 0.0000 0.0000 -4.2650 0.0000 0.0000 0.0000 0.0000 0.0000 0.0000 0.0000 0.0000 0.0000 0.0000 0.0000 -15.7771 0.0000 0.0000 36.0798 0.0000 0.0000 0.0000 0.0000 0.0000 0.0000 0.0000 0.0000 -13.6137 0.0000 0.0000 -1.5100 0.0000 0.0000 14.9700 0.0000 0.0000 0.0000 0.0000 0.0000 0.0000 0.0000 
0.0000 99.7667 -6.8259 0.0000 0.0000 0.0000 0.0000 -3.9140 0.0000 0.0000 0.0000 0.0000 0.0000 0.0000 0.0000 0.0000 0.0000 0.0000 0.0000 -16.9394 0.0000 0.0000 36.5266 0.0000 0.0000 0.0000 0.0000 0.0000 0.0000 0.0000 0.0000 -13.4920 0.0000 0.0000 -1.5100 0.0000 0.0000 14.9700 0.0000 0.0000 0.0000 0.0000 0.0000 0.0000 0.0000 
0.0000 99.8077 -6.1978 0.0000 0.0000 0.0000 0.0000 -3.5534 0.0000 0.0000 0.0000 0.0000 0.0000 0.0000 0.0000 0.0000 0.0000 0.0000 0.0000 -18.0553 0.0000 0.0000 36.7603 0.0000 0.0000 0.0000 0.0000 0.0000 0.0000 0.0000 0.0000 -13.3787 0.0000 0.0000 -1.5100 0.0000 0.0000 14.9700 0.0000 0.0000 0.0000 0.0000 0.0000 0.0000 0.0000 
0.0000 99.8458 -5.5515 0.0000 0.0000 0.0000 0.0000 -3.1824 0.0000 0.0000 0.0000 0.0000 0.0000 0.0000 0.0000 0.0000 0.0000 0.0000 0.0000 -19.1208 0.0000 0.0000 36.7688 0.0000 0.0000 0.0000 0.0000 0.0000 0.0000 0.0000 0.0000 -13.2745 0.0000 0.0000 -1.5100 0.0000 0.0000 14.9700 0.0000 0.0000 0.0000 0.0000 0.0000 0.0000 0.0000 
0.0000 99.8805 -4.8857 0.0000 0.0000 0.0000 0.0000 -2.8004 0.0000 0.0000 0.0000 0.0000 0.0000 0.0000 0.0000 0.0000 0.0000 0.0000 0.0000 -20.1323 0.0000 0.0000 36.5436 0.0000 0.0000 0.0000 0.0000 0.0000 0.0000 0.0000 0.0000 -13.1801 0.0000 0.0000 -1.5100 0.0000 0.0000 14.9700 0.0000 0.0000 0.0000 0.0000 0.0000 0.0000 0.0000 
